<?xml version="1.0" standalone="no"?>
<!DOCTYPE svg PUBLIC "-//W3C//DTD SVG 20010904//EN"
 "http://www.w3.org/TR/2001/REC-SVG-20010904/DTD/svg10.dtd">
<svg version="1.0" xmlns="http://www.w3.org/2000/svg"
 width="512.000000pt" height="512.000000pt" viewBox="0 0 512.000000 512.000000"
 preserveAspectRatio="xMidYMid meet">

<g transform="translate(0.000000,512.000000) scale(0.100000,-0.100000)"
fill="#000000" stroke="none">
<path d="M2051 4869 c-117 -20 -236 -114 -289 -227 -32 -69 -39 -163 -23 -313
14 -125 39 -175 107 -215 99 -58 223 -26 281 74 26 43 28 57 32 170 l3 122
198 0 199 0 -5 38 c-26 188 -153 322 -335 351 -73 12 -93 12 -168 0z"/>
<path d="M1842 3168 c3 -634 4 -675 22 -708 35 -66 87 -110 156 -131 14 -4
-63 -8 -170 -8 -167 -1 -201 -4 -236 -20 -119 -54 -121 -219 -4 -278 l44 -23
-267 0 -267 0 -2 -161 -3 -161 -70 -18 c-38 -10 -95 -27 -125 -39 -50 -19 -75
-21 -287 -21 l-233 0 0 -202 0 -202 -39 -76 c-62 -120 -99 -253 -116 -418 l-6
-62 214 0 214 0 14 -42 c35 -108 160 -244 274 -298 72 -34 176 -60 245 -60 69
0 173 26 245 60 114 54 239 190 274 298 l14 42 702 0 c427 0 723 4 755 10 98
19 135 45 278 203 74 81 136 147 137 147 1 0 -1 -99 -3 -220 l-5 -220 109 0
109 0 24 -45 c49 -92 184 -201 297 -240 197 -67 411 -22 561 119 72 67 121
143 154 236 37 107 30 282 -16 393 -6 13 -2 17 18 17 24 0 25 3 21 37 -17 126
-61 222 -139 300 -61 61 -172 119 -244 128 -101 13 -91 -5 -91 174 l0 158 -57
6 c-121 13 -246 105 -306 227 l-32 64 -3 253 -3 253 160 0 161 0 0 281 0 282
-105 -5 c-87 -5 -115 -11 -160 -33 l-55 -26 0 -210 0 -209 -91 0 c-83 0 -90 2
-84 18 31 76 -1 162 -75 200 -24 12 -56 22 -70 22 -49 0 -113 -42 -137 -90
-29 -56 -29 -84 -1 -140 17 -33 35 -51 68 -67 40 -21 59 -23 210 -24 121 -1
153 -3 121 -10 -69 -13 -127 -47 -175 -100 -78 -87 -79 -93 -85 -524 -6 -366
-7 -381 -28 -420 -31 -57 -557 -577 -611 -604 -42 -21 -51 -22 -445 -19 l-402
3 -57 27 c-74 34 -152 112 -186 186 -24 51 -27 69 -27 167 0 98 3 116 27 167
31 66 106 147 166 177 23 12 72 28 108 37 88 20 132 44 178 94 41 46 60 85 69
143 l6 37 -67 0 -66 0 44 23 c48 24 90 88 90 137 0 49 -42 113 -90 138 l-44
22 268 0 c210 0 267 -3 263 -12 -2 -7 -91 -238 -197 -513 -106 -275 -194 -503
-197 -508 -2 -4 86 -7 195 -7 l200 0 191 459 c105 253 196 480 202 506 42 168
-49 360 -206 434 -73 34 -133 41 -366 41 l-219 0 0 202 0 201 64 -62 c105
-100 78 -96 559 -99 l417 -3 0 160 0 161 -362 0 -363 0 -239 280 -240 280
-238 0 -239 0 3 -672z m2594 -2163 c30 -19 60 -49 79 -79 27 -44 30 -58 30
-125 0 -84 -14 -118 -66 -170 -44 -45 -83 -62 -151 -68 -72 -7 -131 14 -183
64 -40 39 -74 104 -75 141 0 12 37 79 83 148 l82 125 76 -3 c64 -3 83 -8 125
-33z m-3076 -386 c-55 -44 -84 -54 -160 -54 -76 0 -105 10 -160 54 l-25 21
185 0 185 0 -25 -21z"/>
<path d="M353 3749 c-43 -13 -90 -62 -103 -107 -6 -23 -10 -244 -10 -599 l0
-563 640 0 641 0 -3 583 c-3 562 -4 583 -23 615 -11 18 -36 43 -55 55 -35 22
-40 22 -545 24 -294 1 -523 -2 -542 -8z"/>
</g>
</svg>
