<?xml version="1.0" encoding="UTF-8"?>
<svg version="1.1" xmlns="http://www.w3.org/2000/svg" width="128" height="128">
<path d="M0 0 C3.96616256 2.08391592 6.41137135 4.1247851 8.09375 8.28125 C8.98698696 13.30570793 7.33720114 16.4412714 4.58984375 20.51171875 C2.41894264 23.0793903 0.25089124 24.20647851 -2.90625 25.28125 C-4.22625 25.28125 -5.54625 25.28125 -6.90625 25.28125 C-6.90625 25.94125 -6.90625 26.60125 -6.90625 27.28125 C-8.22625 27.28125 -9.54625 27.28125 -10.90625 27.28125 C-7.01127777 34.653876 -3.56665689 37.18762414 4.09375 40.28125 C4.42375 38.96125 4.75375 37.64125 5.09375 36.28125 C21.8322153 32.29250933 21.8322153 32.29250933 27.65625 35.84375 C29.59870817 39.13748341 30.02882841 41.45087613 30.09375 45.28125 C29.03125 49.09375 29.03125 49.09375 27.09375 52.28125 C23.90625 53.71875 23.90625 53.71875 21.09375 54.28125 C21.70887818 59.29015086 22.3655052 64.28757136 23.09375 69.28125 C24.125 69.508125 25.15625 69.735 26.21875 69.96875 C31.07383104 71.39094546 34.51329626 73.93070256 37.3203125 78.10546875 C39.87984407 82.79180533 40.71509443 86.98007197 41.09375 92.28125 C39.77375 92.28125 38.45375 92.28125 37.09375 92.28125 C37.01125 93.3125 36.92875 94.34375 36.84375 95.40625 C35.60844065 101.78868165 32.39978777 105.65761445 27.09375 109.28125 C22.25066976 111.89913121 17.29873196 111.94269093 12.01171875 110.8515625 C6.46896797 109.1346875 3.29361318 106.04946717 0.09375 101.28125 C-1.6868301 97.80102527 -1.90625 96.28974055 -1.90625 92.28125 C-13.12625 92.28125 -24.34625 92.28125 -35.90625 92.28125 C-36.56625 95.25125 -37.22625 98.22125 -37.90625 101.28125 C-41.11543502 105.96492543 -44.40242501 108.95221294 -49.71875 110.96875 C-56.88000269 111.9917861 -61.92874855 111.45933864 -67.90625 107.28125 C-71.78834332 103.95494444 -74.11640827 100.98944283 -74.78125 95.84375 C-74.8225 94.668125 -74.86375 93.4925 -74.90625 92.28125 C-76.22625 92.28125 -77.54625 92.28125 -78.90625 92.28125 C-79.02353126 88.61485752 -79.09385891 84.9489548 -79.15625 81.28125 C-79.20652344 79.73630859 -79.20652344 79.73630859 -79.2578125 78.16015625 C-79.3407157 71.6522549 -78.7535829 66.66985894 -74.90625 61.28125 C-70.70625 57.28125 -70.70625 57.28125 -67.90625 57.28125 C-67.926875 56.3325 -67.9475 55.38375 -67.96875 54.40625 C-67.90625 51.28125 -67.90625 51.28125 -66.90625 49.28125 C-68.03804687 49.23226562 -69.16984375 49.18328125 -70.3359375 49.1328125 C-71.81773339 49.05778486 -73.299503 48.98223703 -74.78125 48.90625 C-75.52761719 48.8753125 -76.27398437 48.844375 -77.04296875 48.8125 C-82.6796875 48.5078125 -82.6796875 48.5078125 -84.90625 46.28125 C-85.16503906 43.42382812 -85.16503906 43.42382812 -85.171875 39.8125 C-85.17445312 38.51957031 -85.17703125 37.22664063 -85.1796875 35.89453125 C-85.17549805 35.21986816 -85.17130859 34.54520508 -85.16699219 33.85009766 C-85.1562907 31.78908843 -85.16688943 29.72895081 -85.1796875 27.66796875 C-85.17710938 26.37503906 -85.17453125 25.08210938 -85.171875 23.75 C-85.16961914 22.55826172 -85.16736328 21.36652344 -85.16503906 20.13867188 C-84.90625 17.28125 -84.90625 17.28125 -82.90625 15.28125 C-79.94116211 15.03833008 -79.94116211 15.03833008 -76.18359375 15.05078125 C-75.52291397 15.05123947 -74.86223419 15.05169769 -74.18153381 15.0521698 C-72.78531091 15.05519079 -71.38909133 15.06307258 -69.99291992 15.07543945 C-67.84867502 15.09370804 -65.70486151 15.09594906 -63.56054688 15.09570312 C-53.05368212 15.13381788 -53.05368212 15.13381788 -51.90625 16.28125 C-51.74860595 18.05994726 -51.65524323 19.84443476 -51.58984375 21.62890625 C-51.54794922 22.70849609 -51.50605469 23.78808594 -51.46289062 24.90039062 C-51.42357422 26.03669922 -51.38425781 27.17300781 -51.34375 28.34375 C-51.30056641 29.48392578 -51.25738281 30.62410156 -51.21289062 31.79882812 C-51.10642161 34.62617195 -51.00440793 37.45360738 -50.90625 40.28125 C-50.2875 38.86972656 -50.2875 38.86972656 -49.65625 37.4296875 C-45.42245508 28.15063066 -41.52753083 22.56731275 -31.90625 18.40625 C-27.83217218 17.0239736 -24.17858426 17.05237495 -19.90625 17.28125 C-19.98875 16.085 -20.07125 14.88875 -20.15625 13.65625 C-20.15625 9.16730784 -18.81538267 6.75604736 -15.90625 3.28125 C-11.33452634 -0.73632534 -5.90348717 -2.225905 0 0 Z M-25.96875 38.78125 C-26.88785156 39.2453125 -27.80695312 39.709375 -28.75390625 40.1875 C-29.46417969 40.5484375 -30.17445312 40.909375 -30.90625 41.28125 C-26.90424426 43.94925382 -22.56240924 45.76787257 -18.1796875 47.71484375 C-13.01407435 50.0656013 -13.01407435 50.0656013 -11.90625 52.28125 C-11.75246148 54.23899069 -11.65653537 56.20142352 -11.58984375 58.1640625 C-11.54794922 59.33066406 -11.50605469 60.49726562 -11.46289062 61.69921875 C-11.42357422 62.92253906 -11.38425781 64.14585938 -11.34375 65.40625 C-11.30056641 66.63730469 -11.25738281 67.86835937 -11.21289062 69.13671875 C-11.10656296 72.18477853 -11.00453219 75.2329219 -10.90625 78.28125 C-7.60625 78.28125 -4.30625 78.28125 -0.90625 78.28125 C-0.24625 76.96125 0.41375 75.64125 1.09375 74.28125 C2.08375 73.95125 3.07375 73.62125 4.09375 73.28125 C4.09375 65.03125 4.09375 56.78125 4.09375 48.28125 C1.61875 47.600625 -0.85625 46.92 -3.40625 46.21875 C-10.32103062 44.18864581 -14.89886671 41.56259347 -19.90625 36.28125 C-22.00920783 36.28125 -24.14834422 37.85952556 -25.96875 38.78125 Z M-24.90625 58.28125 C-24.90625 64.88125 -24.90625 71.48125 -24.90625 78.28125 C-23.58625 78.28125 -22.26625 78.28125 -20.90625 78.28125 C-20.90625 72.01125 -20.90625 65.74125 -20.90625 59.28125 C-22.22625 58.95125 -23.54625 58.62125 -24.90625 58.28125 Z " fill="#E04743" transform="translate(85.90625,8.71875)"/>
<path d="M0 0 C1.24601234 -0.00143509 1.24601234 -0.00143509 2.51719666 -0.00289917 C4.26968461 -0.00357849 6.02217511 -0.00174151 7.7746582 0.00244141 C10.45855342 0.00779994 13.14228181 0.00248455 15.82617188 -0.00390625 C17.52994829 -0.00324556 19.23372459 -0.00196458 20.9375 0 C21.74067154 -0.00202423 22.54384308 -0.00404846 23.37135315 -0.00613403 C26.63927694 0.00764381 29.28013141 0.09207505 32.40234375 1.1328125 C32.40234375 8.0628125 32.40234375 14.9928125 32.40234375 22.1328125 C33.72234375 22.1328125 35.04234375 22.1328125 36.40234375 22.1328125 C36.40234375 23.1228125 36.40234375 24.1128125 36.40234375 25.1328125 C37.38976562 25.10960938 38.3771875 25.08640625 39.39453125 25.0625 C40.67585938 25.04445313 41.9571875 25.02640625 43.27734375 25.0078125 C44.55351563 24.98460938 45.8296875 24.96140625 47.14453125 24.9375 C50.40234375 25.1328125 50.40234375 25.1328125 52.40234375 27.1328125 C52.40234375 30.1028125 52.40234375 33.0728125 52.40234375 36.1328125 C42.17234375 36.1328125 31.94234375 36.1328125 21.40234375 36.1328125 C20.74234375 39.1028125 20.08234375 42.0728125 19.40234375 45.1328125 C16.19315873 49.81648793 12.90616874 52.80377544 7.58984375 54.8203125 C0.42859106 55.8433486 -4.6201548 55.31090114 -10.59765625 51.1328125 C-14.47974957 47.80650694 -16.80781452 44.84100533 -17.47265625 39.6953125 C-17.51390625 38.5196875 -17.55515625 37.3440625 -17.59765625 36.1328125 C-18.91765625 36.1328125 -20.23765625 36.1328125 -21.59765625 36.1328125 C-21.71493751 32.46642002 -21.78526516 28.8005173 -21.84765625 25.1328125 C-21.89792969 23.58787109 -21.89792969 23.58787109 -21.94921875 22.01171875 C-22.03225513 15.49336289 -21.4298435 10.53815138 -17.59765625 5.1328125 C-12.17652921 -0.15278637 -7.27759556 -0.01838805 0 0 Z " fill="#F6514A" transform="translate(28.59765625,64.8671875)"/>
<path d="M0 0 C3.96616256 2.08391592 6.41137135 4.1247851 8.09375 8.28125 C8.98698696 13.30570793 7.33720114 16.4412714 4.58984375 20.51171875 C2.41894264 23.0793903 0.25089124 24.20647851 -2.90625 25.28125 C-4.22625 25.28125 -5.54625 25.28125 -6.90625 25.28125 C-6.90625 25.94125 -6.90625 26.60125 -6.90625 27.28125 C-8.22625 27.28125 -9.54625 27.28125 -10.90625 27.28125 C-7.01127777 34.653876 -3.56665689 37.18762414 4.09375 40.28125 C4.42375 38.96125 4.75375 37.64125 5.09375 36.28125 C21.8322153 32.29250933 21.8322153 32.29250933 27.65625 35.84375 C29.59870817 39.13748341 30.02882841 41.45087613 30.09375 45.28125 C29.03125 49.09375 29.03125 49.09375 27.09375 52.28125 C23.90625 53.71875 23.90625 53.71875 21.09375 54.28125 C21.70887818 59.29015086 22.3655052 64.28757136 23.09375 69.28125 C24.125 69.508125 25.15625 69.735 26.21875 69.96875 C31.07383104 71.39094546 34.51329626 73.93070256 37.3203125 78.10546875 C39.87984407 82.79180533 40.71509443 86.98007197 41.09375 92.28125 C36.47375 92.28125 31.85375 92.28125 27.09375 92.28125 C26.43375 94.26125 25.77375 96.24125 25.09375 98.28125 C22.07978205 100.95076447 20.57628989 101.28971561 16.53125 101.21875 C12.76443535 100.19143691 11.36082351 99.42027486 9.09375 96.28125 C8.76375 94.63125 8.43375 92.98125 8.09375 91.28125 C15.35375 91.28125 22.61375 91.28125 30.09375 91.28125 C26.56517267 78.86473026 26.56517267 78.86473026 17.09375 71.28125 C13.83530182 70.36888451 12.03965812 69.87586081 8.90625 71.21875 C8.308125 71.569375 7.71 71.92 7.09375 72.28125 C6.10375 72.28125 5.11375 72.28125 4.09375 72.28125 C4.09375 64.36125 4.09375 56.44125 4.09375 48.28125 C0.38125 47.5078125 0.38125 47.5078125 -3.40625 46.71875 C-10.37567702 45.120768 -15.158185 42.84148402 -19.90625 37.28125 C-20.47472656 37.58160156 -21.04320313 37.88195313 -21.62890625 38.19140625 C-26.84795822 40.761724 -30.12903528 42.04379008 -35.90625 40.28125 C-39.98257269 38.41764152 -43.95786585 36.40131834 -47.90625 34.28125 C-44.5605772 26.19587408 -39.98625346 21.82593651 -31.90625 18.40625 C-27.83217218 17.0239736 -24.17858426 17.05237495 -19.90625 17.28125 C-19.98875 16.085 -20.07125 14.88875 -20.15625 13.65625 C-20.15625 9.16730784 -18.81538267 6.75604736 -15.90625 3.28125 C-11.33452634 -0.73632534 -5.90348717 -2.225905 0 0 Z " fill="#FEDB6D" transform="translate(85.90625,8.71875)"/>
<path d="M0 0 C1.94245817 3.29373341 2.37257841 5.60712613 2.4375 9.4375 C1.375 13.25 1.375 13.25 -0.5625 16.4375 C-3.75 17.875 -3.75 17.875 -6.5625 18.4375 C-5.94737182 23.44640086 -5.2907448 28.44382136 -4.5625 33.4375 C-3.53125 33.664375 -2.5 33.89125 -1.4375 34.125 C3.41758104 35.54719546 6.85704626 38.08695256 9.6640625 42.26171875 C12.22359407 46.94805533 13.05884443 51.13632197 13.4375 56.4375 C8.8175 56.4375 4.1975 56.4375 -0.5625 56.4375 C-1.2225 58.4175 -1.8825 60.3975 -2.5625 62.4375 C-5.57646795 65.10701447 -7.07996011 65.44596561 -11.125 65.375 C-14.89181465 64.34768691 -16.29542649 63.57652486 -18.5625 60.4375 C-18.8925 58.7875 -19.2225 57.1375 -19.5625 55.4375 C-12.3025 55.4375 -5.0425 55.4375 2.4375 55.4375 C-1.09107733 43.02098026 -1.09107733 43.02098026 -10.5625 35.4375 C-13.82094818 34.52513451 -15.61659188 34.03211081 -18.75 35.375 C-19.348125 35.725625 -19.94625 36.07625 -20.5625 36.4375 C-21.5525 36.4375 -22.5425 36.4375 -23.5625 36.4375 C-23.5625 28.5175 -23.5625 20.5975 -23.5625 12.4375 C-22.5725 12.4375 -21.5825 12.4375 -20.5625 12.4375 C-20.3459375 11.509375 -20.3459375 11.509375 -20.125 10.5625 C-19.5625 8.4375 -19.5625 8.4375 -18.5625 6.4375 C-19.201875 6.334375 -19.84125 6.23125 -20.5 6.125 C-21.180625 5.898125 -21.86125 5.67125 -22.5625 5.4375 C-22.8925 4.4475 -23.2225 3.4575 -23.5625 2.4375 C-23.2325 1.7775 -22.9025 1.1175 -22.5625 0.4375 C-15.92662793 -1.73423995 -6.21738174 -3.79108643 0 0 Z " fill="#F5514A" transform="translate(113.5625,44.5625)"/>
<path d="M0 0 C1.23999756 0.00410889 2.47999512 0.00821777 3.75756836 0.01245117 C4.41824814 0.01290939 5.07892792 0.01336761 5.7596283 0.01383972 C7.1558512 0.01686071 8.55207078 0.02474251 9.94824219 0.03710938 C12.09248709 0.05537796 14.2363006 0.05761898 16.38061523 0.05737305 C26.88747999 0.0954878 26.88747999 0.0954878 28.03491211 1.24291992 C28.12282186 3.53443409 28.14185249 5.82864516 28.13256836 8.12182617 C28.13115341 8.80848862 28.12973846 9.49515106 28.12828064 10.20262146 C28.1226669 12.40359793 28.11011218 14.60447401 28.09741211 16.80541992 C28.09239887 18.29435075 28.08783566 19.78328316 28.08374023 21.2722168 C28.07269304 24.92915067 28.05541924 28.58602551 28.03491211 32.24291992 C20.65015668 32.93340329 13.32762844 33.42441853 5.90991211 33.43041992 C5.07459961 33.44266602 4.23928711 33.45491211 3.37866211 33.4675293 C1.26275999 33.47266498 -0.85280912 33.36680108 -2.96508789 33.24291992 C-5.76127921 30.4467286 -5.22331178 28.68407279 -5.23071289 24.77416992 C-5.23329102 23.48124023 -5.23586914 22.18831055 -5.23852539 20.85620117 C-5.23433594 20.18153809 -5.23014648 19.506875 -5.22583008 18.81176758 C-5.21512859 16.75075835 -5.22572732 14.69062073 -5.23852539 12.62963867 C-5.23594727 11.33670898 -5.23336914 10.0437793 -5.23071289 8.71166992 C-5.22845703 7.51993164 -5.22620117 6.32819336 -5.22387695 5.1003418 C-4.85977016 1.08005326 -4.01122866 0.3286268 0 0 Z " fill="#FEDB6D" transform="translate(5.965087890625,23.757080078125)"/>
<path d="M0 0 C35.19316969 14.38633938 35.19316969 14.38633938 37 18 C37.09700679 19.92384589 37.13076217 21.8510548 37.1328125 23.77734375 C37.13474609 25.50694336 37.13474609 25.50694336 37.13671875 27.27148438 C37.13285156 28.48126953 37.12898438 29.69105469 37.125 30.9375 C37.13080078 32.74637695 37.13080078 32.74637695 37.13671875 34.59179688 C37.13542969 35.74615234 37.13414063 36.90050781 37.1328125 38.08984375 C37.13168457 39.15066162 37.13055664 40.21147949 37.12939453 41.30444336 C37 44 37 44 36 47 C33.03 47 30.06 47 27 47 C27 39.74 27 32.48 27 25 C25.68 24.67 24.36 24.34 23 24 C22.01 23.67 21.02 23.34 20 23 C18.66471193 22.91455709 17.32556112 22.88225375 15.98754883 22.88647461 C15.18694534 22.88655014 14.38634186 22.88662567 13.56147766 22.88670349 C12.27227669 22.89444542 12.27227669 22.89444542 10.95703125 22.90234375 C10.0734343 22.9037587 9.18983734 22.90517365 8.27946472 22.90663147 C5.45710872 22.91222931 2.63483203 22.92478139 -0.1875 22.9375 C-2.10091031 22.94251528 -4.01432187 22.94707814 -5.92773438 22.95117188 C-10.61852014 22.96219803 -15.30924663 22.97946117 -20 23 C-20.19726562 17.29492188 -20.19726562 17.29492188 -18.421875 14.640625 C-15.20151214 12.45908887 -13.10324449 12.59587022 -9.25 12.75 C-8.07953125 12.78609375 -6.9090625 12.8221875 -5.703125 12.859375 C-4.81109375 12.90578125 -3.9190625 12.9521875 -3 13 C-3.061875 11.96875 -3.12375 10.9375 -3.1875 9.875 C-2.98697862 5.73089151 -1.94088063 3.59648747 0 0 Z " fill="#49474D" transform="translate(38,43)"/>
<path d="M0 0 C6.06782599 4.21081102 9.9798976 8.81003026 12 16 C12 17.32 12 18.64 12 20 C11.01 20 10.02 20 9 20 C8.95875 20.721875 8.9175 21.44375 8.875 22.1875 C7.60925821 26.25595574 5.50670208 27.68425334 2 30 C-1.89698186 30.71577218 -3.41376524 30.35174086 -6.8125 28.3125 C-9 26 -9 26 -10 21 C-14.62 21 -19.24 21 -24 21 C-22.77487913 13.64927475 -20.82242908 7.01735247 -15 2 C-9.8117993 -1.27019675 -5.66421355 -3.25390991 0 0 Z " fill="#E04945" transform="translate(31,80)"/>
<path d="M0 0 C3.96616256 2.08391592 6.41137135 4.1247851 8.09375 8.28125 C8.98698696 13.30570793 7.33720114 16.4412714 4.58984375 20.51171875 C2.41894264 23.0793903 0.25089124 24.20647851 -2.90625 25.28125 C-4.22625 25.28125 -5.54625 25.28125 -6.90625 25.28125 C-6.90625 25.94125 -6.90625 26.60125 -6.90625 27.28125 C-11.82914989 26.84687648 -14.39375825 24.637631 -17.90625 21.28125 C-20.21209081 18.24173256 -20.32506923 15.08703061 -20.2265625 11.30859375 C-19.5526908 7.04347897 -16.98980978 4.2334692 -13.84375 1.46875 C-9.55084314 -1.16238646 -4.77281121 -1.79958456 0 0 Z " fill="#E14843" transform="translate(85.90625,8.71875)"/>
<path d="M0 0 C3.3 0 6.6 0 10 0 C10.4125 0.94875 10.825 1.8975 11.25 2.875 C12.72315321 5.95042763 12.72315321 5.95042763 14.75 7.4375 C18.09473496 8.27368374 20.67106331 7.78683958 24 7 C26.80833152 4.96638062 27.3686968 3.26260639 29 0 C32.3 0 35.6 0 39 0 C38.46209337 6.72383291 36.51887549 10.67488416 31.5625 15.25 C26.50774017 18.70203111 22.10857463 19.70005846 16 19 C9.45624833 17.64950716 5.68620825 14.49293532 2 9 C0.2194199 5.51977527 0 4.00849055 0 0 Z " fill="#41414A" transform="translate(84,101)"/>
<path d="M0 0 C3.3 0 6.6 0 10 0 C10.433125 0.94875 10.86625 1.8975 11.3125 2.875 C12.79302201 6.20041937 12.79302201 6.20041937 16 8 C19.79944252 8.49557946 21.48731111 8.32625657 24.75 6.25 C27.28987545 3.94729537 27.28987545 3.94729537 29 0 C32.3 0 35.6 0 39 0 C37.89784842 6.61290946 36.81763542 10.29440262 32 15 C26.67173417 18.76877339 21.50707112 19.82817269 15 19 C8.98404872 17.12987282 4.15620591 13.48761933 1 8 C0.26710654 5.22859492 0.10149859 2.8927098 0 0 Z " fill="#414149" transform="translate(11,101)"/>
<path d="M0 0 C7.14768959 -0.47300887 13.16561661 -0.55771306 19 4 C24.38213863 9.52598198 27 15.19209293 27 23 C22.38 23 17.76 23 13 23 C12.34 24.98 11.68 26.96 11 29 C7.98603205 31.66951447 6.48253989 32.00846561 2.4375 31.9375 C-1.32931465 30.91018691 -2.73292649 30.13902486 -5 27 C-5.33 25.35 -5.66 23.7 -6 22 C1.26 22 8.52 22 16 22 C12.38920181 9.60407842 12.38920181 9.60407842 3 2 C2.01 1.34 1.02 0.68 0 0 Z " fill="#CB4744" transform="translate(100,78)"/>
<path d="M0 0 C1.94245817 3.29373341 2.37257841 5.60712613 2.4375 9.4375 C1.26106211 13.65883596 0.58563336 15.76998061 -3.25 18 C-7.57399641 18.57109386 -10.40970468 17.72629855 -14.5625 16.4375 C-14.2325 13.7975 -13.9025 11.1575 -13.5625 8.4375 C-14.284375 8.334375 -15.00625 8.23125 -15.75 8.125 C-18.80741993 7.37763068 -20.94579635 6.15704811 -23.5625 4.4375 C-23.2325 3.1175 -22.9025 1.7975 -22.5625 0.4375 C-5.8240347 -3.55124067 -5.8240347 -3.55124067 0 0 Z " fill="#EF444D" transform="translate(113.5625,44.5625)"/>
<path d="M0 0 C6.59092212 -0.54924351 11.57009641 0.0379362 17 4 C20.90152261 7.67879789 24.73583526 11.66241554 26 17 C26 18.98 26 20.96 26 23 C21.71 23 17.42 23 13 23 C13.99 22.67 14.98 22.34 16 22 C13.35034554 13.38082992 10.67267072 6.68245912 2.625 2.0625 C1.75875 1.711875 0.8925 1.36125 0 1 C0 0.67 0 0.34 0 0 Z " fill="#CB413D" transform="translate(27,78)"/>
<path d="M0 0 C1.65 0 3.3 0 5 0 C6 1 6 1 6.11352539 3.95922852 C6.10828857 5.25272217 6.10305176 6.54621582 6.09765625 7.87890625 C6.0962413 8.5655687 6.09482635 9.25223114 6.09336853 9.95970154 C6.08775479 12.16067801 6.07520007 14.36155409 6.0625 16.5625 C6.05748676 18.05143083 6.05292355 19.54036324 6.04882812 21.02929688 C6.03778093 24.68623075 6.02050713 28.34310558 6 32 C4.02 32 2.04 32 0 32 C0 21.44 0 10.88 0 0 Z " fill="#FFCB2C" transform="translate(28,24)"/>
<path d="M0 0 C3.53571429 0.53571429 3.53571429 0.53571429 5 2 C5.29386153 5.72224599 5.14809171 6.77786243 3 10 C5.31 10.33 7.62 10.66 10 11 C10.33 13.31 10.66 15.62 11 18 C4.97229862 17.52412884 0.23321711 14.80277043 -5 12 C-5 11.01 -5 10.02 -5 9 C-3.68 8.67 -2.36 8.34 -1 8 C-1.66 7.34 -2.32 6.68 -3 6 C-2.63318342 3.06546739 -2.13562754 2.13562754 0 0 Z " fill="#CD423E" transform="translate(96,51)"/>
<path d="M0 0 C2.97 0.495 2.97 0.495 6 1 C8.25882865 4.38824297 9.13787948 6.34274274 8.80078125 10.39453125 C7.58502024 16.41497976 7.58502024 16.41497976 5 19 C3.35 19.33 1.7 19.66 0 20 C0 13.4 0 6.8 0 0 Z " fill="#FDC968" transform="translate(107,43)"/>
<path d="M0 0 C3.3 0 6.6 0 10 0 C10.02685938 2.14576637 10.04633088 4.29162645 10.0625 6.4375 C10.07410156 7.63246094 10.08570313 8.82742187 10.09765625 10.05859375 C10 13 10 13 9 14 C5.99668982 14.14193337 3.00782866 14.04236378 0 14 C0 9.38 0 4.76 0 0 Z " fill="#F75C4D" transform="translate(13,24)"/>
<path d="M0 0 C2.3125 2.8125 2.3125 2.8125 4 6 C5.0209375 6.7115625 5.0209375 6.7115625 6.0625 7.4375 C8 9 8 9 9.4375 12.4375 C12.05171096 18.39790098 16.43953002 20.42662726 22.3125 22.75 C23.38113281 23.17796875 24.44976562 23.6059375 25.55078125 24.046875 C26.35902344 24.36140625 27.16726562 24.6759375 28 25 C28 25.66 28 26.32 28 27 C20.45949696 26.4972998 12.07958673 23.86069869 6.9375 18.0625 C5.02758622 15.04360402 4.12238942 12.36716826 3 9 C1.10748567 5.31611534 1.10748567 5.31611534 -2 3 C-6.37707344 2.4900497 -10.61413413 2.65324047 -15 3 C-10.28258193 -0.14494538 -5.57995298 -1.09569986 0 0 Z " fill="#FECB34" transform="translate(67,26)"/>
<path d="M0 0 C5.94 0 11.88 0 18 0 C17 5 17 5 14.8125 7.3125 C11.4527447 9.32835318 9.85325079 9.64220846 6 9 C3.1875 7.3125 3.1875 7.3125 1 5 C0.67 3.35 0.34 1.7 0 0 Z " fill="#EAEAF6" transform="translate(21,101)"/>
<path d="M0 0 C5.94 0 11.88 0 18 0 C16 6 16 6 13.8125 7.9375 C10.06790815 9.35212359 7.84121997 9.04760545 4 8 C1.5625 6.1875 1.5625 6.1875 0 4 C0 2.68 0 1.36 0 0 Z " fill="#EAEAF6" transform="translate(95,101)"/>
<path d="M0 0 C2.29141286 -0.05384521 4.58318188 -0.09272087 6.875 -0.125 C8.78925781 -0.15980469 8.78925781 -0.15980469 10.7421875 -0.1953125 C14 0 14 0 16 2 C15.44444444 6.55555556 15.44444444 6.55555556 14 8 C12.2127943 8.15135944 10.41838124 8.22175778 8.625 8.25 C7.15933594 8.28867188 7.15933594 8.28867188 5.6640625 8.328125 C3 8 3 8 1.1484375 6.796875 C-0.36152588 4.43434726 -0.22290616 2.74917596 0 0 Z " fill="#FEC330" transform="translate(65,90)"/>
<path d="M0 0 C1.37478516 0.01740234 1.37478516 0.01740234 2.77734375 0.03515625 C3.69644531 0.04417969 4.61554688 0.05320312 5.5625 0.0625 C6.27277344 0.07410156 6.98304687 0.08570312 7.71484375 0.09765625 C8.04484375 0.75765625 8.37484375 1.41765625 8.71484375 2.09765625 C7.32020141 5.95343213 6.26600274 7.74585264 2.77734375 9.97265625 C-0.28515625 11.09765625 -0.28515625 11.09765625 -4.28515625 11.09765625 C-4.14472748 9.45135297 -3.99766296 7.80561446 -3.84765625 6.16015625 C-3.76644531 5.24363281 -3.68523437 4.32710937 -3.6015625 3.3828125 C-3.17883984 0.32981552 -3.0932479 0.13219008 0 0 Z " fill="#F5D6C8" transform="translate(83.28515625,22.90234375)"/>
<path d="M0 0 C3.68396566 1.39658534 6.42545461 3.29571856 8.9375 6.375 C10.17071876 9.42177577 10.22728306 11.74227611 10 15 C9.01 15.33 8.02 15.66 7 16 C6.82984375 15.38511719 6.6596875 14.77023438 6.484375 14.13671875 C6.12085938 12.92435547 6.12085938 12.92435547 5.75 11.6875 C5.51796875 10.88699219 5.2859375 10.08648437 5.046875 9.26171875 C3.76520278 6.49273286 2.63223166 5.5200211 0 4 C-2.57258666 3.22167356 -2.57258666 3.22167356 -5.25 2.8125 C-6.14203125 2.65394531 -7.0340625 2.49539062 -7.953125 2.33203125 C-8.62859375 2.22246094 -9.3040625 2.11289063 -10 2 C-6.22786948 -0.51475368 -4.47964158 -0.44796416 0 0 Z " fill="#CE423E" transform="translate(84,8)"/>
<path d="M0 0 C3.53571429 0.53571429 3.53571429 0.53571429 5 2 C5.125 4.5 5.125 4.5 5 7 C4 8 4 8 1.5625 8.1875 C-1 8 -1 8 -3 6 C-2.63318342 3.06546739 -2.13562754 2.13562754 0 0 Z " fill="#524A4E" transform="translate(96,51)"/>
<path d="M0 0 C2.97 0 5.94 0 9 0 C8.01 0.495 8.01 0.495 7 1 C7 2.98 7 4.96 7 7 C4.625 7.125 4.625 7.125 2 7 C0 5 0 5 -0.125 2.375 C-0.08375 1.59125 -0.0425 0.8075 0 0 Z " fill="#F6D068" transform="translate(65,90)"/>
<path d="M0 0 C3.63 0 7.26 0 11 0 C10.01 2.64 9.02 5.28 8 8 C7.4121875 7.0409375 7.4121875 7.0409375 6.8125 6.0625 C4.61527704 3.56221181 3.24208567 3.35049575 0 3 C0 2.01 0 1.02 0 0 Z " fill="#F6514A" transform="translate(74,87)"/>
<path d="M0 0 C2.4375 0.375 2.4375 0.375 5 1 C5.33 1.66 5.66 2.32 6 3 C4.35 3 2.7 3 1 3 C1.33 4.32 1.66 5.64 2 7 C1.34 7 0.68 7 0 7 C0 4.69 0 2.38 0 0 Z " fill="#E54A4C" transform="translate(90,57)"/>
</svg>
